<svg width="15" height="15" viewBox="0 0 15 15" fill="none" xmlns="http://www.w3.org/2000/svg">
<g clip-path="url(#clip0)">
<path d="M0.843166 8.67632L0.819752 8.6712L10.8571 8.6712L7.7017 11.8335C7.54719 11.9879 7.46244 12.1971 7.46243 12.4166C7.46243 12.6361 7.54719 12.8438 7.7017 12.9985L8.19268 13.4897C8.34707 13.6441 8.5528 13.7295 8.77219 13.7295C8.9917 13.7295 9.19756 13.6447 9.35195 13.4903L14.7609 8.08193C14.9159 7.92693 15.0006 7.72047 15 7.50084C15.0006 7.27998 14.9159 7.0734 14.7609 6.91864L9.35195 1.50974C9.19756 1.35547 8.99183 1.27059 8.77219 1.27059C8.5528 1.27059 8.34707 1.35559 8.19268 1.50974L7.70171 2.00096C7.54719 2.15511 7.46244 2.36096 7.46244 2.58047C7.46244 2.79986 7.54719 2.99486 7.7017 3.14913L10.8927 6.32913L0.831947 6.32913C0.379874 6.32913 -4.49625e-06 6.71876 -4.57525e-06 7.17059L-4.69673e-06 7.86534C-4.77573e-06 8.31717 0.391093 8.67632 0.843166 8.67632Z" fill="#FBB040"/>
</g>
<defs>
<clipPath id="clip0">
<rect width="15" height="15" fill="white" transform="matrix(1 1.74846e-07 1.74846e-07 -1 0 15)"/>
</clipPath>
</defs>
</svg>
