<svg width="32" height="26" viewBox="0 0 32 26" fill="none" xmlns="http://www.w3.org/2000/svg">
<path d="M19.7466 8.87502C20.1433 9.27174 20.1433 9.91484 19.7466 10.3114L12.9332 17.125C12.5365 17.5215 11.8936 17.5215 11.4968 17.125L8.25339 13.8813C7.85666 13.4848 7.85666 12.8417 8.25339 12.4452C8.64992 12.0484 9.29301 12.0484 9.68954 12.4452L12.2149 14.9706L18.3103 8.87502C18.707 8.47849 19.3501 8.47849 19.7466 8.87502ZM27 13C27 20.1857 21.1848 26 14 26C6.81425 26 1 20.1848 1 13C1 5.81425 6.81525 0 14 0C21.1857 0 27 5.81525 27 13ZM24.9688 13C24.9688 6.937 20.0622 2.03125 14 2.03125C7.937 2.03125 3.03125 6.93779 3.03125 13C3.03125 19.063 7.93779 23.9688 14 23.9688C20.063 23.9688 24.9688 19.0622 24.9688 13Z" fill="#03A34D"/>
</svg>
