  <svg width="37" height="37" viewBox="0 0 37 37" fill="none" xmlns="http://www.w3.org/2000/svg">
<path d="M18.2559 36.5117C28.3383 36.5117 36.5117 28.3383 36.5117 18.2559C36.5117 8.17343 28.3383 0 18.2559 0C8.17343 0 0 8.17343 0 18.2559C0 28.3383 8.17343 36.5117 18.2559 36.5117Z" fill="#3795EB"/>
<path d="M19.6335 10.0806L19.2946 11.8276L20.097 11.9833L20.4359 10.2362L19.6335 10.0806Z" fill="white"/>
<path d="M17.8964 8.29596L17.287 11.4377L17.8229 11.5417L18.4323 8.39994L17.8964 8.29596Z" fill="white"/>
<path d="M22.1808 9.12726L21.5714 12.269L22.1072 12.373L22.7167 9.23124L22.1808 9.12726Z" fill="white"/>
<path d="M18.3177 29.0321L14.569 28.3052L14.1075 29.6083C14.0868 29.6505 14.075 29.6967 14.0729 29.7437C14.0708 29.7908 14.0785 29.8378 14.0956 29.8817C14.1126 29.9256 14.1385 29.9656 14.1717 29.999C14.2049 30.0324 14.2447 30.0585 14.2885 30.0758L17.9075 30.7816C18.0764 30.8148 18.2423 30.6368 18.2513 30.4136L18.3177 29.0321Z" fill="white"/>
<path d="M21.6381 11.9199L17.8894 11.1929C17.0027 11.021 16.101 11.8204 15.8778 12.9756L13.3023 26.2477C13.0791 27.406 13.6039 28.4828 14.5086 28.6608L18.2573 29.3877C19.144 29.5597 20.0457 28.7603 20.2689 27.605L22.8445 14.333C23.0616 13.1687 22.5248 12.0918 21.6381 11.9199Z" fill="white"/>
<path d="M15.712 26.7152L18.2875 13.4432C18.5107 12.2849 19.4124 11.4886 20.2991 11.6605L17.8864 11.1929C16.9998 11.021 16.098 11.8204 15.8748 12.9756L13.2993 26.2477C13.0761 27.406 13.6009 28.4828 14.5056 28.6608L16.9183 29.1283C16.0256 28.9503 15.4858 27.8705 15.712 26.7152Z" fill="white"/>
<path d="M22.9018 9.63049L17.5607 8.59285C17.482 8.56473 17.4174 8.50722 17.3803 8.43241C17.3431 8.3576 17.3365 8.27131 17.3616 8.19167C17.3978 7.99863 17.5486 7.86591 17.6964 7.89004L23.0495 8.9337C23.1282 8.96182 23.1928 9.01933 23.23 9.09414C23.2671 9.16896 23.2738 9.25525 23.2486 9.33488C23.2034 9.52793 23.0646 9.66065 22.9018 9.63049Z" fill="white"/>
<path d="M20.6369 10.6381L19.2828 10.3787C19.2041 10.3506 19.1395 10.2931 19.1024 10.2183C19.0652 10.1435 19.0586 10.0572 19.0837 9.97756C19.1199 9.78452 19.2707 9.65179 19.4185 9.67593L20.7575 9.93533C20.8362 9.96345 20.9008 10.021 20.9379 10.0958C20.9751 10.1706 20.9817 10.2569 20.9566 10.3365C20.9355 10.5356 20.7907 10.6683 20.6369 10.6381Z" fill="white"/>
<path d="M21.4812 21.313L14.5206 19.9556C14.442 19.9275 14.3773 19.87 14.3402 19.7952C14.3031 19.7204 14.2964 19.6341 14.3216 19.5545C14.3578 19.3614 14.5086 19.2287 14.6563 19.2528L21.617 20.6042C21.6956 20.6323 21.7603 20.6898 21.7974 20.7646C21.8345 20.8394 21.8412 20.9257 21.816 21.0053C21.7798 21.2074 21.632 21.3402 21.4812 21.313Z" fill="white"/>
<path d="M16.7313 20.0283C16.7675 19.8352 16.9183 19.7025 17.066 19.7266L14.6534 19.2591C14.5056 19.2289 14.3518 19.3647 14.3186 19.5607C14.2954 19.6399 14.3034 19.725 14.3409 19.7985C14.3785 19.872 14.4428 19.9283 14.5207 19.9559L16.9333 20.4234C16.8555 20.3959 16.7912 20.3396 16.7536 20.2661C16.716 20.1926 16.708 20.1075 16.7313 20.0283Z" fill="white"/>
<path d="M15.5973 29.8402L15.3922 30.2745L17.9225 30.7662C18.0914 30.7994 18.2573 30.6214 18.2663 30.3982V30.0966L15.8989 29.6502C15.8349 29.6457 15.7712 29.6617 15.717 29.6958C15.6628 29.73 15.6208 29.7806 15.5973 29.8402Z" fill="white"/>
</svg>
