<svg width="21" height="35" viewBox="0 0 21 35" fill="none" xmlns="http://www.w3.org/2000/svg">
<path d="M0 4C0 2.34315 1.34315 1 3 1H18C19.6569 1 21 2.34315 21 4V35L10.5 21.7778L0 35V4Z" fill="white"/>
<path d="M0 3C0 1.34315 1.34315 0 3 0H18C19.6569 0 21 1.34315 21 3V4H10.5H0V3Z" fill="#FBB040"/>
<path fill-rule="evenodd" clip-rule="evenodd" d="M14.2966 16.9312H12.5246L9.97208 12.9178H7.97896V16.9312H6.20694V12.9178H4.80005V11.9687H6.20694V10.0208H4.80005V9.07173H6.20694V6.85718H7.97896L9.38629 9.07173H12.5386V6.85718H14.2966V9.07173H15.7035V10.0208H14.2966V11.9687H15.7035V12.9178H14.2966V16.9312ZM7.97896 11.9687H9.36847L8.12964 10.0208H7.97896V11.9687ZM11.8304 12.9178L12.5386 14.0322V12.9178H11.8304ZM12.5386 11.9687H11.2273L9.98943 10.0208H12.5386V11.9687Z" fill="#298DCC"/>
</svg>
