<svg width="118" height="118" viewBox="0 0 118 118" fill="none" xmlns="http://www.w3.org/2000/svg">
<mask id="mask0" mask-type="alpha" maskUnits="userSpaceOnUse" x="0" y="0" width="118" height="118">
<ellipse cx="58.7385" cy="58.7871" rx="58.7385" ry="58.7871" fill="#C4C4C4"/>
</mask>
<g mask="url(#mask0)">
<g opacity="0.76">
<g opacity="0.76">
<path opacity="0.76" d="M178.276 2.54077H-12.7886V9.28562H178.276V2.54077Z" fill="#BDBDBD"/>
<path opacity="0.76" d="M178.276 18.0142H-12.7886V24.759H178.276V18.0142Z" fill="#BDBDBD"/>
<path opacity="0.76" d="M178.276 33.4746H-12.7886V40.2195H178.276V33.4746Z" fill="#BDBDBD"/>
<path opacity="0.76" d="M178.276 48.948H-12.7886V55.6929H178.276V48.948Z" fill="#BDBDBD"/>
<path opacity="0.76" d="M178.276 64.4082H-12.7886V71.1531H178.276V64.4082Z" fill="#BDBDBD"/>
<path opacity="0.76" d="M178.276 79.8816H-12.7886V86.6264H178.276V79.8816Z" fill="#BDBDBD"/>
<path opacity="0.76" d="M178.276 95.342H-12.7886V102.087H178.276V95.342Z" fill="#BDBDBD"/>
<path opacity="0.76" d="M178.276 110.815H-12.7886V117.56H178.276V110.815Z" fill="#BDBDBD"/>
</g>
</g>
<path d="M60.7441 100.781C82.5594 100.781 100.244 83.0958 100.244 61.2805C100.244 39.4653 82.5594 21.7805 60.7441 21.7805C38.9289 21.7805 21.2441 39.4653 21.2441 61.2805C21.2441 83.0958 38.9289 100.781 60.7441 100.781Z" fill="#828282"/>
<path d="M63.725 43.5914L62.9917 47.3716L64.7277 47.7085L65.461 43.9283L63.725 43.5914Z" fill="white"/>
<path d="M59.9664 39.7302L58.6477 46.5281L59.8072 46.7531L61.1259 39.9552L59.9664 39.7302Z" fill="white"/>
<path d="M69.2364 41.5291L67.9177 48.3269L69.0772 48.5519L70.3959 41.7541L69.2364 41.5291Z" fill="white"/>
<path d="M60.878 84.5968L52.7669 83.0239L51.7685 85.8434C51.7236 85.9348 51.698 86.0346 51.6936 86.1365C51.6891 86.2383 51.7058 86.34 51.7426 86.435C51.7794 86.5301 51.8355 86.6165 51.9073 86.6888C51.9792 86.761 52.0652 86.8176 52.1601 86.855L59.9905 88.3822C60.3559 88.454 60.7148 88.0689 60.7344 87.586L60.878 84.5968Z" fill="white"/>
<path d="M68.0623 47.5717L59.9513 45.9988C58.0328 45.6268 56.0817 47.3564 55.5988 49.856L50.0261 78.5726C49.5433 81.0788 50.6787 83.4087 52.6363 83.7938L60.7474 85.3667C62.6658 85.7387 64.6169 84.0091 65.0998 81.5095L70.6725 52.7929C71.1423 50.2737 69.9808 47.9437 68.0623 47.5717Z" fill="white"/>
<path d="M55.2399 79.5842L60.8126 50.8676C61.2954 48.3614 63.2465 46.6384 65.165 47.0104L59.9447 45.9988C58.0262 45.6268 56.0751 47.3564 55.5922 49.856L50.0196 78.5726C49.5367 81.0788 50.6721 83.4087 52.6297 83.7938L57.85 84.8054C55.9185 84.4203 54.7505 82.0838 55.2399 79.5842Z" fill="white"/>
<path d="M70.7965 42.6181L59.24 40.373C59.0699 40.3121 58.9299 40.1877 58.8496 40.0258C58.7693 39.864 58.7549 39.6773 58.8093 39.505C58.8876 39.0873 59.2139 38.8001 59.5336 38.8523L71.1162 41.1105C71.2863 41.1713 71.4263 41.2958 71.5066 41.4576C71.5869 41.6195 71.6013 41.8062 71.5469 41.9785C71.449 42.3962 71.1488 42.6834 70.7965 42.6181Z" fill="white"/>
<path d="M65.896 44.798L62.9661 44.2368C62.7959 44.1759 62.656 44.0515 62.5757 43.8896C62.4954 43.7277 62.4809 43.541 62.5354 43.3687C62.6137 42.951 62.94 42.6639 63.2597 42.7161L66.157 43.2774C66.3271 43.3382 66.467 43.4626 66.5473 43.6245C66.6277 43.7864 66.6421 43.9731 66.5877 44.1454C66.542 44.5761 66.2288 44.8633 65.896 44.798Z" fill="white"/>
<path d="M67.7227 67.8954L52.6621 64.9584C52.492 64.8976 52.3521 64.7732 52.2718 64.6113C52.1914 64.4494 52.177 64.2627 52.2314 64.0904C52.3097 63.6727 52.636 63.3856 52.9558 63.4378L68.0164 66.3616C68.1865 66.4225 68.3264 66.5469 68.4067 66.7088C68.487 66.8706 68.5015 67.0574 68.447 67.2297C68.3687 67.6669 68.049 67.9541 67.7227 67.8954Z" fill="white"/>
<path d="M57.4453 65.1152C57.5236 64.6975 57.8499 64.4104 58.1696 64.4626L52.9493 63.451C52.6296 63.3857 52.2968 63.6794 52.225 64.1036C52.1747 64.275 52.192 64.4592 52.2734 64.6182C52.3547 64.7772 52.4938 64.899 52.6622 64.9586L57.8825 65.9702C57.7142 65.9107 57.575 65.7888 57.4937 65.6298C57.4124 65.4708 57.3951 65.2866 57.4453 65.1152Z" fill="white"/>
<path d="M54.9918 86.3456L54.5481 87.2855L60.0229 88.3493C60.3883 88.4211 60.7472 88.036 60.7668 87.553V86.9004L55.6444 85.9345C55.506 85.9248 55.3682 85.9594 55.2509 86.0333C55.1335 86.1072 55.0428 86.2166 54.9918 86.3456Z" fill="white"/>
</g>
</svg>
