<svg width="165" height="49" viewBox="0 0 165 49" fill="none" xmlns="http://www.w3.org/2000/svg">
<rect width="165" height="49" rx="24.5" fill="#6D6D6D"/>
<circle cx="27.5" cy="24.5" r="19.5" fill="#3795EB"/>
<path d="M25.6691 17.7422H24.2145V23.2731L22.045 22.0385L19.8755 23.273V17.7422H17.2856V29.8927H25.6691C26.0814 29.8927 26.4686 30.0011 26.8044 30.1905V18.8774C26.8044 18.2515 26.2951 17.7422 25.6691 17.7422Z" fill="white"/>
<path d="M27.9893 32.2124V32.5594H37.508V31.0771H29.1245C28.4985 31.0771 27.9893 31.5863 27.9893 32.2124Z" fill="white"/>
<path d="M25.6691 31.0771H17.2856V32.5594H26.8044V32.2124C26.8044 31.5863 26.2951 31.0771 25.6691 31.0771Z" fill="white"/>
<path d="M29.1245 17.7422C28.4985 17.7422 27.9893 18.2515 27.9893 18.8774V30.1905C28.3251 30.0011 28.7122 29.8927 29.1245 29.8927H37.508V17.7422H29.1245ZM36.1006 27.9672H29.3956V26.7823H36.1006V27.9672ZM36.1006 25.5956H29.3956V24.4108H36.1006V25.5956ZM36.1006 23.2241H29.3956V22.0392H36.1006V23.2241ZM36.1006 20.8524H29.3956V19.6677H36.1006V20.8524Z" fill="white"/>
<path d="M21.0605 21.2354L22.0452 20.6751L23.0298 21.2354V16.5557H21.0605V21.2354Z" fill="white"/>
<path d="M64.0799 19.7444V28H62.6044V24.4167H58.3771V28H56.89V19.7444H58.3771V23.1989H62.6044V19.7444H64.0799ZM70.8673 25.4004H66.9679C67.0147 25.9312 67.1748 26.3255 67.448 26.5831C67.7212 26.8407 68.1116 26.9695 68.619 26.9695C69.2513 26.9695 69.829 26.7665 70.3521 26.3606L70.7736 27.3677C70.5082 27.5862 70.1725 27.7619 69.7666 27.8946C69.3684 28.0273 68.9664 28.0937 68.5604 28.0937C67.6236 28.0937 66.882 27.8283 66.3355 27.2974C65.7969 26.7665 65.5275 26.0405 65.5275 25.1193C65.5275 24.5338 65.6446 24.0147 65.8788 23.5619C66.113 23.1091 66.4409 22.7578 66.8625 22.508C67.2919 22.2582 67.7759 22.1333 68.3145 22.1333C69.103 22.1333 69.7236 22.387 70.1764 22.8944C70.637 23.4019 70.8673 24.1006 70.8673 24.9905V25.4004ZM68.3497 23.1638C67.9593 23.1638 67.6432 23.2887 67.4011 23.5385C67.1669 23.7883 67.0225 24.1474 66.9679 24.6158H69.6143C69.5987 24.1396 69.4816 23.7805 69.263 23.5385C69.0445 23.2887 68.74 23.1638 68.3497 23.1638ZM72.1818 19.7444H73.6455V28H72.1818V19.7444ZM78.5626 22.1333C79.0544 22.1333 79.4916 22.2582 79.8741 22.508C80.2645 22.7578 80.565 23.113 80.7758 23.5736C80.9944 24.0264 81.1037 24.5495 81.1037 25.1428C81.1037 25.7361 80.9944 26.2552 80.7758 26.7002C80.565 27.1452 80.2684 27.4887 79.8858 27.7307C79.5033 27.9727 79.0622 28.0937 78.5626 28.0937C78.1567 28.0937 77.7937 28.0078 77.4736 27.8361C77.1535 27.6643 76.9076 27.4262 76.7358 27.1217V30.1078H75.2721V22.2738H76.7124V23.1403C76.8842 22.8203 77.1301 22.5744 77.4502 22.4026C77.778 22.2231 78.1489 22.1333 78.5626 22.1333ZM78.1762 26.9578C78.6368 26.9578 78.9959 26.8017 79.2535 26.4894C79.5111 26.1693 79.6399 25.7205 79.6399 25.1428C79.6399 24.5495 79.5111 24.0889 79.2535 23.761C78.9959 23.4331 78.6368 23.2692 78.1762 23.2692C77.7078 23.2692 77.3448 23.4292 77.0871 23.7493C76.8373 24.0693 76.7124 24.526 76.7124 25.1193C76.7124 25.7048 76.8373 26.1576 77.0871 26.4777C77.3448 26.7978 77.7078 26.9578 78.1762 26.9578ZM91.6084 28L90.7418 27.11C90.3983 27.4223 90.0119 27.6643 89.5825 27.8361C89.161 28.0078 88.716 28.0937 88.2476 28.0937C87.6933 28.0937 87.2015 28 86.7721 27.8126C86.3428 27.6175 86.0071 27.352 85.7651 27.0164C85.5309 26.6729 85.4138 26.2786 85.4138 25.8336C85.4138 25.3418 85.5504 24.9008 85.8236 24.5104C86.1047 24.1201 86.5497 23.7532 87.1586 23.4097C86.8541 23.074 86.6316 22.7656 86.4911 22.4846C86.3584 22.2035 86.292 21.9108 86.292 21.6063C86.292 21.0208 86.4989 20.5524 86.9127 20.2011C87.3342 19.842 87.8807 19.6625 88.5521 19.6625C89.1766 19.6625 89.6723 19.8264 90.0392 20.1543C90.414 20.4744 90.6013 20.9076 90.6013 21.4541C90.6013 21.8757 90.4803 22.2543 90.2383 22.59C89.9963 22.9179 89.5982 23.2496 89.0439 23.5853L90.6716 25.2481C90.9916 24.6158 91.1673 23.8781 91.1985 23.035H92.4164C92.3695 24.2372 92.0768 25.2716 91.5381 26.1381L93.3532 28H91.6084ZM88.5638 20.6695C88.2749 20.6695 88.0446 20.7554 87.8729 20.9272C87.7011 21.0911 87.6153 21.3136 87.6153 21.5946C87.6153 21.782 87.6621 21.9615 87.7558 22.1333C87.8495 22.305 88.029 22.5314 88.2944 22.8125C88.7082 22.5783 88.997 22.3636 89.161 22.1684C89.3249 21.9654 89.4069 21.7469 89.4069 21.5127C89.4069 21.255 89.3288 21.0521 89.1727 20.9037C89.0166 20.7476 88.8136 20.6695 88.5638 20.6695ZM88.2944 26.9578C88.9112 26.9578 89.4576 26.7314 89.9338 26.2786L87.9197 24.1942C87.5372 24.4284 87.2601 24.6705 87.0883 24.9203C86.9244 25.1623 86.8424 25.4433 86.8424 25.7634C86.8424 26.1303 86.9712 26.4231 87.2288 26.6416C87.4943 26.8524 87.8495 26.9578 88.2944 26.9578ZM100.03 28.1054C99.3973 28.1054 98.804 28.0195 98.2497 27.8478C97.6954 27.676 97.227 27.434 96.8445 27.1217L97.348 26.021C97.7462 26.3255 98.1638 26.548 98.601 26.6885C99.046 26.829 99.5261 26.8993 100.041 26.8993C100.611 26.8993 101.048 26.8017 101.353 26.6065C101.665 26.4035 101.821 26.1225 101.821 25.7634C101.821 25.4511 101.677 25.213 101.388 25.0491C101.107 24.8851 100.635 24.729 99.9711 24.5807C99.2841 24.4324 98.7259 24.2606 98.2965 24.0654C97.8672 23.8703 97.5432 23.6205 97.3246 23.316C97.106 23.0115 96.9967 22.6251 96.9967 22.1567C96.9967 21.6727 97.1294 21.2394 97.3949 20.8569C97.6603 20.4744 98.035 20.1777 98.519 19.9669C99.003 19.7484 99.5612 19.6391 100.194 19.6391C100.771 19.6391 101.322 19.7288 101.845 19.9084C102.368 20.0801 102.797 20.3182 103.133 20.6227L102.629 21.7234C101.895 21.1379 101.084 20.8452 100.194 20.8452C99.6627 20.8452 99.2411 20.9545 98.9289 21.1731C98.6244 21.3838 98.4722 21.6805 98.4722 22.063C98.4722 22.3831 98.6088 22.629 98.882 22.8008C99.1553 22.9725 99.6198 23.1325 100.276 23.2809C100.97 23.437 101.532 23.6127 101.962 23.8078C102.399 23.9952 102.731 24.2372 102.957 24.5338C103.191 24.8305 103.308 25.2052 103.308 25.658C103.308 26.1498 103.176 26.5831 102.91 26.9578C102.653 27.3247 102.274 27.6097 101.774 27.8126C101.283 28.0078 100.701 28.1054 100.03 28.1054ZM109.944 22.2738V28H108.516V27.1217C108.336 27.434 108.094 27.676 107.79 27.8478C107.485 28.0117 107.142 28.0937 106.759 28.0937C105.354 28.0937 104.651 27.3052 104.651 25.7283V22.2738H106.115V25.74C106.115 26.1459 106.197 26.4465 106.361 26.6416C106.525 26.8368 106.783 26.9344 107.134 26.9344C107.54 26.9344 107.864 26.8017 108.106 26.5362C108.356 26.263 108.481 25.9039 108.481 25.4589V22.2738H109.944ZM114.876 22.1333C115.367 22.1333 115.804 22.2582 116.187 22.508C116.577 22.7578 116.878 23.113 117.089 23.5736C117.307 24.0264 117.417 24.5495 117.417 25.1428C117.417 25.7361 117.307 26.2552 117.089 26.7002C116.878 27.1452 116.581 27.4887 116.199 27.7307C115.816 27.9727 115.375 28.0937 114.876 28.0937C114.47 28.0937 114.107 28.0078 113.786 27.8361C113.466 27.6643 113.22 27.4262 113.049 27.1217V30.1078H111.585V22.2738H113.025V23.1403C113.197 22.8203 113.443 22.5744 113.763 22.4026C114.091 22.2231 114.462 22.1333 114.876 22.1333ZM114.489 26.9578C114.95 26.9578 115.309 26.8017 115.566 26.4894C115.824 26.1693 115.953 25.7205 115.953 25.1428C115.953 24.5495 115.824 24.0889 115.566 23.761C115.309 23.4331 114.95 23.2692 114.489 23.2692C114.021 23.2692 113.658 23.4292 113.4 23.7493C113.15 24.0693 113.025 24.526 113.025 25.1193C113.025 25.7048 113.15 26.1576 113.4 26.4777C113.658 26.7978 114.021 26.9578 114.489 26.9578ZM122.025 22.1333C122.517 22.1333 122.954 22.2582 123.337 22.508C123.727 22.7578 124.028 23.113 124.239 23.5736C124.457 24.0264 124.567 24.5495 124.567 25.1428C124.567 25.7361 124.457 26.2552 124.239 26.7002C124.028 27.1452 123.731 27.4887 123.349 27.7307C122.966 27.9727 122.525 28.0937 122.025 28.0937C121.62 28.0937 121.257 28.0078 120.936 27.8361C120.616 27.6643 120.37 27.4262 120.199 27.1217V30.1078H118.735V22.2738H120.175V23.1403C120.347 22.8203 120.593 22.5744 120.913 22.4026C121.241 22.2231 121.612 22.1333 122.025 22.1333ZM121.639 26.9578C122.1 26.9578 122.459 26.8017 122.716 26.4894C122.974 26.1693 123.103 25.7205 123.103 25.1428C123.103 24.5495 122.974 24.0889 122.716 23.761C122.459 23.4331 122.1 23.2692 121.639 23.2692C121.171 23.2692 120.808 23.4292 120.55 23.7493C120.3 24.0693 120.175 24.526 120.175 25.1193C120.175 25.7048 120.3 26.1576 120.55 26.4777C120.808 26.7978 121.171 26.9578 121.639 26.9578ZM128.496 28.0937C127.911 28.0937 127.396 27.9727 126.951 27.7307C126.513 27.4887 126.174 27.1413 125.932 26.6885C125.69 26.2357 125.569 25.7087 125.569 25.1076C125.569 24.5065 125.69 23.9835 125.932 23.5385C126.174 23.0857 126.513 22.7383 126.951 22.4963C127.396 22.2543 127.911 22.1333 128.496 22.1333C129.082 22.1333 129.593 22.2543 130.03 22.4963C130.475 22.7383 130.815 23.0857 131.049 23.5385C131.291 23.9835 131.412 24.5065 131.412 25.1076C131.412 25.7087 131.291 26.2357 131.049 26.6885C130.815 27.1413 130.475 27.4887 130.03 27.7307C129.593 27.9727 129.082 28.0937 128.496 28.0937ZM128.485 26.9578C128.961 26.9578 129.324 26.8017 129.574 26.4894C129.823 26.1771 129.948 25.7165 129.948 25.1076C129.948 24.5065 129.823 24.0498 129.574 23.7376C129.324 23.4175 128.965 23.2574 128.496 23.2574C128.028 23.2574 127.665 23.4175 127.407 23.7376C127.157 24.0498 127.032 24.5065 127.032 25.1076C127.032 25.7165 127.157 26.1771 127.407 26.4894C127.657 26.8017 128.016 26.9578 128.485 26.9578ZM136.508 23.3511L135.653 23.4331C134.685 23.5346 134.201 24.0264 134.201 24.9086V28H132.738V22.2738H134.131V23.2809C134.428 22.5939 135.041 22.2192 135.97 22.1567L136.414 22.1216L136.508 23.3511ZM140.791 26.9929C140.963 26.9929 141.142 26.9812 141.33 26.9578L141.259 28.0468C141.025 28.0703 140.81 28.082 140.615 28.082C139.811 28.082 139.218 27.8985 138.835 27.5316C138.453 27.1569 138.262 26.6026 138.262 25.8688V23.3745H137.161V22.2738H138.262V20.5641H139.725V22.2738H141.236V23.3745H139.725V25.8454C139.725 26.6104 140.081 26.9929 140.791 26.9929Z" fill="white"/>
</svg>
