<svg width="20" height="20" viewBox="0 0 20 20" fill="none" xmlns="http://www.w3.org/2000/svg">
<circle cx="10" cy="10" r="10" fill="#3795EB"/>
<path d="M14.8622 9.36694C15.0616 9.14041 15.0423 8.79322 14.8192 8.59166L9.90315 4.14844C9.68002 3.94688 9.32227 3.9511 9.10383 4.15796L4.17108 8.82855C3.95264 9.03541 3.94192 9.38216 4.14734 9.60272L4.27101 9.73576C4.47619 9.95632 4.80783 9.98262 5.01128 9.79432L5.37993 9.45331V14.4457C5.37993 14.752 5.62021 15 5.91653 15H7.83933C8.13565 15 8.37593 14.752 8.37593 14.4457V10.9531H10.8285V14.4457C10.8242 14.7518 11.0362 14.9998 11.3326 14.9998H13.3702C13.6666 14.9998 13.9068 14.7518 13.9068 14.4455V9.52361C13.9068 9.52361 14.0087 9.61576 14.1343 9.7298C14.2597 9.84362 14.523 9.75235 14.7224 9.52561L14.8622 9.36694Z" fill="white"/>
</svg>
