<svg width="18" height="18" viewBox="0 0 18 18" fill="none" xmlns="http://www.w3.org/2000/svg">
<path d="M9.00011 9.68896C8.48332 9.68896 8.06421 10.1079 8.06421 10.6249C8.06421 10.9714 8.25315 11.2733 8.53324 11.4352V12.4757H9.46698V11.4352C9.74706 11.2734 9.93601 10.9714 9.93601 10.6249C9.93601 10.1079 9.51696 9.68896 9.00011 9.68896Z" fill="#FBB040"/>
<path d="M9.00026 5.15088C8.21358 5.15088 7.57373 5.79079 7.57373 6.57741V8.09658H10.4267V6.57741C10.4266 5.79091 9.78676 5.15088 9.00026 5.15088Z" fill="#FBB040"/>
<path d="M8.99988 0C4.02944 0 0 4.02956 0 9C0 13.9703 4.02944 18 8.99988 18C13.9703 18 18.0001 13.9703 18.0001 9C18.0001 4.02956 13.9703 0 8.99988 0ZM11.7653 13.6273H6.23484C5.65079 13.6273 5.17726 13.1538 5.17726 12.5695V9.15432C5.17726 8.64485 5.53769 8.21938 6.01746 8.1193V6.57745C6.01746 4.93288 7.35549 3.59473 9.00018 3.59473C10.6448 3.59473 11.9828 4.93276 11.9828 6.57745V8.1193C12.4624 8.21968 12.8228 8.64485 12.8228 9.15432V12.5695H12.8229C12.8229 13.1537 12.3494 13.6273 11.7653 13.6273Z" fill="#FBB040"/>
</svg>
