<svg width="18" height="18" viewBox="0 0 18 18" fill="none" xmlns="http://www.w3.org/2000/svg">
<path d="M8.99979 0C4.0294 0 0 4.02952 0 8.99991C0 13.9702 4.0294 18 8.99979 18C13.9702 18 17.9999 13.9702 17.9999 8.99991C17.9999 4.02952 13.9702 0 8.99979 0ZM8.99997 4.16119L14.3258 6.48222H3.67414L8.99997 4.16119ZM14.3922 11.7855C14.3922 12.3182 13.9599 12.7498 13.4273 12.7498H4.57265C4.03996 12.7498 3.60832 12.3181 3.60832 11.7855V6.69355C3.60832 6.63721 3.61408 6.58243 3.62344 6.5286L8.71197 7.70162C8.71821 7.70552 8.72487 7.70816 8.73129 7.71176C8.73801 7.71548 8.74485 7.71908 8.75169 7.7225C8.78763 7.74104 8.82465 7.75598 8.86251 7.76576C8.86641 7.76684 8.87031 7.76732 8.87421 7.76822C8.91573 7.778 8.95779 7.78412 8.99979 7.78412C9.04179 7.78412 9.08475 7.77818 9.12627 7.76822C9.13017 7.76726 9.13407 7.76684 9.13797 7.76576C9.17577 7.75598 9.21267 7.74104 9.24879 7.7225C9.25563 7.71908 9.26247 7.71548 9.26919 7.71176C9.27555 7.70816 9.28227 7.70552 9.28851 7.70162L14.377 6.5286C14.3864 6.58243 14.3922 6.63709 14.3922 6.69355V11.7855Z" fill="#FBB040"/>
</svg>
