<svg width="20" height="28" viewBox="0 0 20 28" fill="none" xmlns="http://www.w3.org/2000/svg">
<path d="M0.117676 1.64709H19.8824V23.0001C19.8824 25.7615 17.6438 28.0001 14.8824 28.0001H5.11768C2.35626 28.0001 0.117676 25.7615 0.117676 23.0001V1.64709Z" fill="white"/>
<rect x="2.58826" width="14.8236" height="3.29412" rx="1" fill="#FBB040"/>
<path d="M13.494 10.5061C12.5607 9.57282 11.3199 9.05884 10 9.05884C8.68017 9.05884 7.43933 9.57282 6.50606 10.5061C5.57282 11.4393 5.05884 12.6802 5.05884 14C5.05884 15.3199 5.57282 16.5607 6.50606 17.494C7.43933 18.4272 8.68019 18.9412 10 18.9412C11.3199 18.9412 12.5607 18.4272 13.494 17.494C14.4272 16.5607 14.9412 15.3199 14.9412 14C14.9412 12.6802 14.4272 11.4393 13.494 10.5061ZM12.3607 12.824L9.59934 15.5854C9.54281 15.642 9.46871 15.6702 9.39463 15.6702C9.32053 15.6702 9.24643 15.642 9.1899 15.5854L7.63933 14.0349C7.52626 13.9218 7.52626 13.7385 7.63933 13.6254C7.75238 13.5124 7.93571 13.5124 8.04878 13.6254L9.39463 14.9713L11.9513 12.4146C12.0643 12.3015 12.2476 12.3015 12.3607 12.4146C12.4738 12.5277 12.4738 12.711 12.3607 12.824Z" fill="#298DCC"/>
</svg>
