<svg width="338" height="43" viewBox="0 0 338 43" fill="none" xmlns="http://www.w3.org/2000/svg">
<rect width="338" height="43" rx="10" fill="url(#paint0_linear)"/>
<path d="M31.9072 26H30.1777L25.7412 18.9385V26H24.0117V16.0469H25.7412L30.1914 23.1357V16.0469H31.9072V26ZM37.1879 26.1367C36.1351 26.1367 35.2806 25.8063 34.6244 25.1455C33.9727 24.4801 33.6468 23.596 33.6468 22.4932V22.2881C33.6468 21.5498 33.7881 20.8913 34.0707 20.3125C34.3578 19.7292 34.7588 19.2757 35.2738 18.9521C35.7888 18.6286 36.363 18.4668 36.9964 18.4668C38.0036 18.4668 38.7806 18.7881 39.3275 19.4307C39.8789 20.0732 40.1546 20.9824 40.1546 22.1582V22.8281H35.3216C35.3718 23.4388 35.5746 23.9219 35.93 24.2773C36.2901 24.6328 36.7412 24.8105 37.2836 24.8105C38.0446 24.8105 38.6644 24.5029 39.1429 23.8877L40.0384 24.7422C39.7422 25.1842 39.3457 25.5283 38.849 25.7744C38.3568 26.016 37.8031 26.1367 37.1879 26.1367ZM36.9896 19.7998C36.5339 19.7998 36.1647 19.9593 35.8822 20.2783C35.6042 20.5973 35.4265 21.0417 35.349 21.6113H38.514V21.4883C38.4776 20.9323 38.3295 20.513 38.0697 20.2305C37.8099 19.9434 37.4499 19.7998 36.9896 19.7998ZM44.2458 21.0371L45.654 18.6035H47.4997L45.237 22.2471L47.5749 26H45.7429L44.2663 23.4707L42.7966 26H40.9509L43.2888 22.2471L41.0329 18.6035H42.865L44.2458 21.0371ZM50.8526 16.8057V18.6035H52.1583V19.834H50.8526V23.9629C50.8526 24.2454 50.9073 24.4505 51.0167 24.5781C51.1306 24.7012 51.3311 24.7627 51.6182 24.7627C51.8096 24.7627 52.0033 24.7399 52.1993 24.6943V25.9795C51.821 26.0843 51.4565 26.1367 51.1055 26.1367C49.8295 26.1367 49.1915 25.4326 49.1915 24.0244V19.834H47.9747V18.6035H49.1915V16.8057H50.8526Z" fill="white"/>
<path d="M312.352 22.3453L306.192 28.3568C305.995 28.5477 305.676 28.5477 305.479 28.3568L304.648 27.5526C304.451 27.3617 304.451 27.053 304.648 26.8621L309.62 22L304.648 17.1379C304.451 16.947 304.451 16.6383 304.648 16.4474L305.479 15.6432C305.676 15.4523 305.995 15.4523 306.192 15.6432L312.352 21.6547C312.549 21.8456 312.549 22.1544 312.352 22.3453Z" fill="white"/>
<defs>
<linearGradient id="paint0_linear" x1="73.9375" y1="-3.04283" x2="145.631" y2="100.155" gradientUnits="userSpaceOnUse">
<stop stop-color="#3795EB"/>
<stop offset="1" stop-color="#63D2EB"/>
</linearGradient>
</defs>
</svg>
