<svg width="140" height="128" viewBox="0 0 140 128" fill="none" xmlns="http://www.w3.org/2000/svg">
<g filter="url(#filter0_d)">
<rect x="6" y="2.62073" width="128" height="114.759" rx="11.0345" fill="url(#paint0_linear)"/>
</g>
<path d="M55.7092 92.096C54.9092 92.096 54.2132 91.92 53.6212 91.568C53.0372 91.216 52.5852 90.716 52.2652 90.068C51.9452 89.42 51.7852 88.656 51.7852 87.776C51.7852 86.888 51.9412 86.12 52.2532 85.472C52.5732 84.816 53.0292 84.316 53.6212 83.972C54.2132 83.62 54.9092 83.444 55.7092 83.444C56.5172 83.444 57.2172 83.62 57.8092 83.972C58.4012 84.316 58.8532 84.816 59.1652 85.472C59.4852 86.12 59.6452 86.884 59.6452 87.764C59.6452 88.644 59.4852 89.412 59.1652 90.068C58.8532 90.716 58.4012 91.216 57.8092 91.568C57.2172 91.92 56.5172 92.096 55.7092 92.096ZM55.7092 91.088C56.5572 91.088 57.2172 90.8 57.6892 90.224C58.1612 89.648 58.3972 88.828 58.3972 87.764C58.3972 86.7 58.1612 85.884 57.6892 85.316C57.2252 84.74 56.5652 84.452 55.7092 84.452C54.8692 84.452 54.2132 84.74 53.7412 85.316C53.2772 85.884 53.0452 86.7 53.0452 87.764C53.0452 88.828 53.2772 89.648 53.7412 90.224C54.2132 90.8 54.8692 91.088 55.7092 91.088ZM64.871 87.02L64.139 87.092C63.563 87.148 63.147 87.324 62.891 87.62C62.643 87.916 62.519 88.292 62.519 88.748V92H61.307V86.144H62.483V87.164C62.795 86.476 63.431 86.096 64.391 86.024L64.787 86L64.871 87.02ZM71.1044 83.54V92H69.9044V90.992C69.7284 91.344 69.4724 91.616 69.1364 91.808C68.8004 91.992 68.4124 92.084 67.9724 92.084C67.4684 92.084 67.0164 91.956 66.6164 91.7C66.2244 91.444 65.9164 91.084 65.6924 90.62C65.4764 90.156 65.3684 89.624 65.3684 89.024C65.3684 88.416 65.4764 87.884 65.6924 87.428C65.9164 86.972 66.2244 86.62 66.6164 86.372C67.0084 86.124 67.4604 86 67.9724 86C68.4124 86 68.7964 86.096 69.1244 86.288C69.4604 86.472 69.7164 86.736 69.8924 87.08V83.54H71.1044ZM68.2604 91.124C68.7884 91.124 69.1924 90.944 69.4724 90.584C69.7604 90.224 69.9044 89.712 69.9044 89.048C69.9044 88.384 69.7604 87.872 69.4724 87.512C69.1924 87.152 68.7884 86.972 68.2604 86.972C67.7324 86.972 67.3204 87.152 67.0244 87.512C66.7364 87.864 66.5924 88.368 66.5924 89.024C66.5924 89.68 66.7404 90.196 67.0364 90.572C67.3324 90.94 67.7404 91.124 68.2604 91.124ZM77.9302 89.276H73.7902C73.8782 90.516 74.4942 91.136 75.6382 91.136C76.3102 91.136 76.9182 90.916 77.4622 90.476L77.8342 91.328C77.5622 91.56 77.2262 91.744 76.8262 91.88C76.4262 92.016 76.0182 92.084 75.6022 92.084C74.6662 92.084 73.9262 91.816 73.3822 91.28C72.8462 90.744 72.5782 90.004 72.5782 89.06C72.5782 88.46 72.6942 87.928 72.9262 87.464C73.1662 87 73.4982 86.64 73.9222 86.384C74.3542 86.128 74.8422 86 75.3862 86C76.1782 86 76.7982 86.256 77.2462 86.768C77.7022 87.28 77.9302 87.988 77.9302 88.892V89.276ZM75.4102 86.888C74.9462 86.888 74.5742 87.036 74.2942 87.332C74.0222 87.62 73.8582 88.036 73.8022 88.58H76.8862C76.8622 88.036 76.7222 87.62 76.4662 87.332C76.2182 87.036 75.8662 86.888 75.4102 86.888ZM82.9498 87.02L82.2178 87.092C81.6418 87.148 81.2258 87.324 80.9698 87.62C80.7218 87.916 80.5978 88.292 80.5978 88.748V92H79.3858V86.144H80.5618V87.164C80.8738 86.476 81.5098 86.096 82.4698 86.024L82.8658 86L82.9498 87.02ZM85.9057 92.084C84.8897 92.084 84.0777 91.836 83.4697 91.34L83.8417 90.464C84.4417 90.928 85.1417 91.16 85.9417 91.16C86.3337 91.16 86.6337 91.096 86.8417 90.968C87.0497 90.832 87.1537 90.644 87.1537 90.404C87.1537 90.196 87.0817 90.032 86.9377 89.912C86.8017 89.792 86.5617 89.692 86.2177 89.612L85.2457 89.396C84.7257 89.276 84.3337 89.08 84.0697 88.808C83.8057 88.536 83.6737 88.192 83.6737 87.776C83.6737 87.248 83.8857 86.82 84.3097 86.492C84.7417 86.164 85.3057 86 86.0017 86C86.4177 86 86.8137 86.068 87.1897 86.204C87.5657 86.332 87.8897 86.516 88.1617 86.756L87.7897 87.608C87.2137 87.152 86.6177 86.924 86.0017 86.924C85.6337 86.924 85.3417 86.996 85.1257 87.14C84.9177 87.284 84.8137 87.48 84.8137 87.728C84.8137 87.928 84.8777 88.092 85.0057 88.22C85.1417 88.34 85.3537 88.432 85.6417 88.496L86.6377 88.724C87.2057 88.852 87.6217 89.052 87.8857 89.324C88.1497 89.588 88.2817 89.936 88.2817 90.368C88.2817 90.896 88.0657 91.316 87.6337 91.628C87.2097 91.932 86.6337 92.084 85.9057 92.084Z" fill="white"/>
<path d="M54.7648 28.103H85V60.7679C85 64.9922 81.5756 68.4167 77.3512 68.4167H62.4136C58.1892 68.4167 54.7648 64.9922 54.7648 60.7679V28.103Z" fill="white"/>
<rect x="58.5441" y="25.5834" width="22.6765" height="5.03921" rx="1.52976" fill="#FBB040"/>
<path d="M75.2272 41.6551C73.7995 40.2274 71.9013 39.4412 69.8823 39.4412C67.8632 39.4412 65.9651 40.2274 64.5374 41.6551C63.1098 43.0827 62.3235 44.9809 62.3235 47C62.3235 49.019 63.1098 50.9172 64.5374 52.3449C65.9651 53.7725 67.8633 54.5588 69.8823 54.5588C71.9013 54.5588 73.7995 53.7725 75.2272 52.3449C76.6549 50.9172 77.4411 49.019 77.4411 47C77.4411 44.9809 76.6549 43.0828 75.2272 41.6551ZM73.4936 45.201L69.2694 49.4253C69.1829 49.5117 69.0695 49.555 68.9562 49.555C68.8428 49.555 68.7295 49.5117 68.643 49.4253L66.271 47.0533C66.0981 46.8804 66.0981 46.6 66.271 46.427C66.444 46.254 66.7244 46.254 66.8974 46.427L68.9562 48.4858L72.8672 44.5747C73.0402 44.4017 73.3206 44.4017 73.4936 44.5747C73.6666 44.7476 73.6666 45.028 73.4936 45.201Z" fill="#298DCC"/>
<defs>
<filter id="filter0_d" x="0" y="0.620728" width="140" height="126.759" filterUnits="userSpaceOnUse" color-interpolation-filters="sRGB">
<feFlood flood-opacity="0" result="BackgroundImageFix"/>
<feColorMatrix in="SourceAlpha" type="matrix" values="0 0 0 0 0 0 0 0 0 0 0 0 0 0 0 0 0 0 127 0"/>
<feOffset dy="4"/>
<feGaussianBlur stdDeviation="3"/>
<feColorMatrix type="matrix" values="0 0 0 0 0 0 0 0 0 0 0 0 0 0 0 0 0 0 0.12 0"/>
<feBlend mode="normal" in2="BackgroundImageFix" result="effect1_dropShadow"/>
<feBlend mode="normal" in="SourceGraphic" in2="effect1_dropShadow" result="shape"/>
</filter>
<linearGradient id="paint0_linear" x1="34" y1="-5.49998" x2="114.064" y2="10.8531" gradientUnits="userSpaceOnUse">
<stop stop-color="#3795EB"/>
<stop offset="1" stop-color="#4DC9E4"/>
</linearGradient>
</defs>
</svg>
