<svg width="126" height="38" viewBox="0 0 126 38" fill="none" xmlns="http://www.w3.org/2000/svg">
<rect width="126" height="38" rx="19" fill="url(#paint0_linear)"/>
<g filter="url(#filter0_d)">
<path d="M47.6377 23L46.9131 20.6211H43.2695L42.5449 23H40.2617L43.7891 12.9648H46.3799L49.9209 23H47.6377ZM46.4072 18.8438C45.7373 16.6882 45.359 15.4691 45.2725 15.1865C45.1904 14.904 45.1312 14.6807 45.0947 14.5166C44.9443 15.0999 44.5137 16.5423 43.8027 18.8438H46.4072ZM54.125 23.1367C51.7461 23.1367 50.5566 21.8311 50.5566 19.2197C50.5566 17.9209 50.8802 16.9297 51.5273 16.2461C52.1745 15.5579 53.1019 15.2139 54.3096 15.2139C55.1937 15.2139 55.9867 15.387 56.6885 15.7334L56.0732 17.3467C55.7451 17.2145 55.4398 17.1074 55.1572 17.0254C54.8747 16.9388 54.5921 16.8955 54.3096 16.8955C53.2249 16.8955 52.6826 17.6657 52.6826 19.2061C52.6826 20.7008 53.2249 21.4482 54.3096 21.4482C54.7106 21.4482 55.082 21.3958 55.4238 21.291C55.7656 21.1816 56.1074 21.013 56.4492 20.7852V22.5693C56.112 22.7835 55.7702 22.9316 55.4238 23.0137C55.082 23.0957 54.6491 23.1367 54.125 23.1367ZM61.4463 21.4756C61.8109 21.4756 62.2484 21.3958 62.7588 21.2363V22.7881C62.2393 23.0205 61.6012 23.1367 60.8447 23.1367C60.0107 23.1367 59.4023 22.9271 59.0195 22.5078C58.6413 22.084 58.4521 21.4505 58.4521 20.6074V16.9229H57.4541V16.041L58.6025 15.3438L59.2041 13.7305H60.5371V15.3574H62.6768V16.9229H60.5371V20.6074C60.5371 20.9036 60.6191 21.1224 60.7832 21.2637C60.9518 21.4049 61.1729 21.4756 61.4463 21.4756ZM64.2217 13.3818C64.2217 12.7028 64.5999 12.3633 65.3564 12.3633C66.113 12.3633 66.4912 12.7028 66.4912 13.3818C66.4912 13.7054 66.3955 13.9583 66.2041 14.1406C66.0173 14.3184 65.7347 14.4072 65.3564 14.4072C64.5999 14.4072 64.2217 14.0654 64.2217 13.3818ZM66.3955 23H64.3105V15.3574H66.3955V23ZM70.4082 23L67.4961 15.3574H69.6768L71.1533 19.7119C71.3174 20.2633 71.4199 20.7852 71.4609 21.2773H71.502C71.5247 20.8398 71.6273 20.318 71.8096 19.7119L73.2793 15.3574H75.46L72.5479 23H70.4082ZM79.7256 16.6973C79.2835 16.6973 78.9372 16.8385 78.6865 17.1211C78.4359 17.3991 78.2923 17.7956 78.2559 18.3105H81.1816C81.1725 17.7956 81.0381 17.3991 80.7783 17.1211C80.5186 16.8385 80.1676 16.6973 79.7256 16.6973ZM80.0195 23.1367C78.7891 23.1367 77.8275 22.7972 77.1348 22.1182C76.4421 21.4391 76.0957 20.4775 76.0957 19.2334C76.0957 17.9528 76.4147 16.9639 77.0527 16.2666C77.6953 15.5648 78.5817 15.2139 79.7119 15.2139C80.792 15.2139 81.6328 15.5215 82.2344 16.1367C82.8359 16.752 83.1367 17.6019 83.1367 18.6865V19.6982H78.208C78.2308 20.2907 78.4062 20.7533 78.7344 21.0859C79.0625 21.4186 79.5228 21.585 80.1152 21.585C80.5755 21.585 81.0107 21.5371 81.4209 21.4414C81.8311 21.3457 82.2594 21.193 82.7061 20.9834V22.5967C82.3415 22.779 81.9518 22.9134 81.5371 23C81.1224 23.0911 80.6165 23.1367 80.0195 23.1367Z" fill="white"/>
</g>
<defs>
<filter id="filter0_d" x="36.2617" y="9.36328" width="50.875" height="18.7734" filterUnits="userSpaceOnUse" color-interpolation-filters="sRGB">
<feFlood flood-opacity="0" result="BackgroundImageFix"/>
<feColorMatrix in="SourceAlpha" type="matrix" values="0 0 0 0 0 0 0 0 0 0 0 0 0 0 0 0 0 0 127 0"/>
<feOffset dy="1"/>
<feGaussianBlur stdDeviation="2"/>
<feColorMatrix type="matrix" values="0 0 0 0 0 0 0 0 0 0 0 0 0 0 0 0 0 0 0.22 0"/>
<feBlend mode="normal" in2="BackgroundImageFix" result="effect1_dropShadow"/>
<feBlend mode="normal" in="SourceGraphic" in2="effect1_dropShadow" result="shape"/>
</filter>
<linearGradient id="paint0_linear" x1="27.5625" y1="-2.68901" x2="87.5476" y2="33.7336" gradientUnits="userSpaceOnUse">
<stop stop-color="#3795EB"/>
<stop offset="1" stop-color="#63D2EB"/>
</linearGradient>
</defs>
</svg>
