<svg width="126" height="38" viewBox="0 0 126 38" fill="none" xmlns="http://www.w3.org/2000/svg">
<rect x="0.5" y="0.5" width="125" height="37" rx="18.5" stroke="#E0E0E0"/>
<path d="M45.9287 23H43.8164V18.6865H39.8584V23H37.7393V13.0059H39.8584V16.9229H43.8164V13.0059H45.9287V23ZM48.2051 13.3818C48.2051 12.7028 48.5833 12.3633 49.3398 12.3633C50.0964 12.3633 50.4746 12.7028 50.4746 13.3818C50.4746 13.7054 50.3789 13.9583 50.1875 14.1406C50.0007 14.3184 49.7181 14.4072 49.3398 14.4072C48.5833 14.4072 48.2051 14.0654 48.2051 13.3818ZM50.3789 23H48.2939V15.3574H50.3789V23ZM57.9053 20.7305C57.9053 21.5143 57.6318 22.1113 57.085 22.5215C56.5426 22.9316 55.7292 23.1367 54.6445 23.1367C54.0885 23.1367 53.6146 23.098 53.2227 23.0205C52.8307 22.9476 52.4639 22.8382 52.1221 22.6924V20.9697C52.5094 21.152 52.9447 21.3047 53.4277 21.4277C53.9154 21.5508 54.3438 21.6123 54.7129 21.6123C55.4694 21.6123 55.8477 21.3936 55.8477 20.9561C55.8477 20.792 55.7975 20.6598 55.6973 20.5596C55.597 20.4548 55.4238 20.3385 55.1777 20.2109C54.9316 20.0788 54.6035 19.9261 54.1934 19.7529C53.6055 19.5068 53.1725 19.279 52.8945 19.0693C52.6211 18.8597 52.4206 18.6204 52.293 18.3516C52.1699 18.0781 52.1084 17.7432 52.1084 17.3467C52.1084 16.6676 52.3704 16.1436 52.8945 15.7744C53.4232 15.4007 54.1706 15.2139 55.1367 15.2139C56.0573 15.2139 56.9528 15.4144 57.8232 15.8154L57.1943 17.3193C56.8115 17.1553 56.4538 17.0208 56.1211 16.916C55.7884 16.8112 55.4489 16.7588 55.1025 16.7588C54.4873 16.7588 54.1797 16.9251 54.1797 17.2578C54.1797 17.4447 54.2777 17.6064 54.4736 17.7432C54.6742 17.8799 55.1094 18.0827 55.7793 18.3516C56.3763 18.5931 56.8138 18.8187 57.0918 19.0283C57.3698 19.238 57.5749 19.4795 57.707 19.7529C57.8392 20.0264 57.9053 20.3522 57.9053 20.7305ZM62.752 21.4756C63.1165 21.4756 63.554 21.3958 64.0645 21.2363V22.7881C63.5449 23.0205 62.9069 23.1367 62.1504 23.1367C61.3164 23.1367 60.708 22.9271 60.3252 22.5078C59.9469 22.084 59.7578 21.4505 59.7578 20.6074V16.9229H58.7598V16.041L59.9082 15.3438L60.5098 13.7305H61.8428V15.3574H63.9824V16.9229H61.8428V20.6074C61.8428 20.9036 61.9248 21.1224 62.0889 21.2637C62.2575 21.4049 62.4785 21.4756 62.752 21.4756ZM67.2773 19.165C67.2773 19.9215 67.4004 20.4935 67.6465 20.8809C67.8971 21.2682 68.3027 21.4619 68.8633 21.4619C69.4193 21.4619 69.818 21.2705 70.0596 20.8877C70.3057 20.5003 70.4287 19.9261 70.4287 19.165C70.4287 18.4085 70.3057 17.8411 70.0596 17.4629C69.8135 17.0846 69.4102 16.8955 68.8496 16.8955C68.2936 16.8955 67.8926 17.0846 67.6465 17.4629C67.4004 17.8366 67.2773 18.404 67.2773 19.165ZM72.5615 19.165C72.5615 20.4092 72.2334 21.3822 71.5771 22.084C70.9209 22.7858 70.0072 23.1367 68.8359 23.1367C68.1022 23.1367 67.4551 22.9772 66.8945 22.6582C66.334 22.3346 65.9033 21.8721 65.6025 21.2705C65.3018 20.6689 65.1514 19.9671 65.1514 19.165C65.1514 17.9163 65.4772 16.9456 66.1289 16.2529C66.7806 15.5602 67.6966 15.2139 68.877 15.2139C69.6107 15.2139 70.2578 15.3734 70.8184 15.6924C71.3789 16.0114 71.8096 16.4694 72.1104 17.0664C72.4111 17.6634 72.5615 18.363 72.5615 19.165ZM78.5498 15.2139C78.8324 15.2139 79.0671 15.2344 79.2539 15.2754L79.0967 17.2305C78.9281 17.1849 78.723 17.1621 78.4814 17.1621C77.8161 17.1621 77.2965 17.333 76.9229 17.6748C76.5537 18.0166 76.3691 18.4951 76.3691 19.1104V23H74.2842V15.3574H75.8633L76.1709 16.6426H76.2734C76.5104 16.2142 76.8294 15.8701 77.2305 15.6104C77.6361 15.346 78.0758 15.2139 78.5498 15.2139ZM79.5479 15.3574H81.8311L83.2734 19.6572C83.3965 20.0309 83.4808 20.473 83.5264 20.9834H83.5674C83.6175 20.514 83.7155 20.0719 83.8613 19.6572L85.2764 15.3574H87.5117L84.2783 23.9775C83.9821 24.7751 83.5583 25.3721 83.0068 25.7686C82.46 26.165 81.8197 26.3633 81.0859 26.3633C80.7259 26.3633 80.3727 26.3245 80.0264 26.2471V24.5928C80.277 24.652 80.5505 24.6816 80.8467 24.6816C81.2158 24.6816 81.5371 24.5677 81.8105 24.3398C82.0885 24.1165 82.305 23.777 82.46 23.3213L82.583 22.9453L79.5479 15.3574Z" fill="#828282"/>
</svg>
