<svg width="20" height="20" viewBox="0 0 20 20" fill="none" xmlns="http://www.w3.org/2000/svg">
<circle cx="10" cy="10" r="10" fill="#3795EB"/>
<path d="M12.2791 3H7C6.44772 3 6 3.44772 6 4V15.5C6 16.0523 6.44772 16.5 7 16.5H12.2791" stroke="white" stroke-linecap="round"/>
<path d="M7.91489 9.31042C7.75868 9.46663 7.75868 9.7199 7.91489 9.87611L10.4605 12.4217C10.6167 12.5779 10.87 12.5779 11.0262 12.4217C11.1824 12.2655 11.1824 12.0122 11.0262 11.856L8.76342 9.59326L11.0262 7.33052C11.1824 7.17431 11.1824 6.92104 11.0262 6.76483C10.87 6.60863 10.6167 6.60863 10.4605 6.76483L7.91489 9.31042ZM14.4768 9.19326L8.19774 9.19326L8.19774 9.99326L14.4768 9.99326L14.4768 9.19326Z" fill="white"/>
</svg>
