<svg width="19" height="33" viewBox="0 0 19 33" fill="none" xmlns="http://www.w3.org/2000/svg">
<path d="M17.6712 15.4948C18.4611 15.8771 18.9096 16.7297 18.777 17.5972L17.002 29.2144C16.7389 30.9362 14.9953 32.0117 13.3386 31.4741C11.3579 30.8314 10.0349 28.9636 10.0859 26.8819L10.412 13.5519C10.4298 12.825 11.1929 12.3595 11.8474 12.6763L17.6712 15.4948Z" fill="#FBB040"/>
<path fill-rule="evenodd" clip-rule="evenodd" d="M13.2138 1C13.2138 0.447716 12.7661 5.14312e-07 12.2138 4.9017e-07L1 0C0.447716 -2.41416e-08 9.47512e-07 0.447715 9.2337e-07 0.999999L0 22.1242C-2.41416e-08 22.6765 0.447714 23.1242 0.999999 23.1242L12.2138 23.1242C12.7661 23.1242 13.2138 22.6765 13.2138 22.1242L13.2138 1ZM6.60691 12.1127C8.73543 12.1127 10.4609 10.3872 10.4609 8.25866C10.4609 6.13014 8.73543 4.40463 6.60691 4.40463C4.47838 4.40463 2.75287 6.13014 2.75287 8.25866C2.75287 10.3872 4.47838 12.1127 6.60691 12.1127Z" fill="white"/>
<path fill-rule="evenodd" clip-rule="evenodd" d="M8.81234 16.7376C8.09088 15.6539 6.62753 15.3603 5.54385 16.0817C4.46017 16.8032 4.16654 18.2665 4.888 19.3502L8.16547 24.2732L8.58671 26.7164C8.77838 27.828 9.34034 28.8422 10.1813 29.5941L12.4203 31.5961C13.323 32.4032 14.6571 32.4983 15.665 31.8272C15.7083 31.7984 15.7505 31.7685 15.7916 31.7376C15.8333 31.7134 15.8747 31.6876 15.9154 31.6605C16.9991 30.939 17.2928 29.4757 16.5713 28.392L16.4077 28.1462C16.4066 28.1447 16.4056 28.1431 16.4046 28.1416L12.5267 22.3167C12.5258 22.3153 12.5248 22.314 12.5239 22.3126L8.81234 16.7376Z" fill="#FBB040"/>
<path fill-rule="evenodd" clip-rule="evenodd" d="M8.59511 10.5017H7.81317L6.68685 8.73071H5.80732V10.5017H5.02538V8.73071H4.40459V8.3119H5.02538V7.45238H4.40459V7.03357H5.02538V6.0563H5.80732L6.42837 7.03357H7.81935V6.0563H8.59511V7.03357H9.21596V7.45238H8.59511V8.3119H9.21596V8.73071H8.59511V10.5017ZM5.80732 8.3119H6.4205L5.87385 7.45238H5.80732V8.3119ZM7.50688 8.73071L7.81935 9.22241V8.73071H7.50688ZM7.81935 8.3119H7.24073L6.69452 7.45238H7.81935V8.3119Z" fill="white"/>
</svg>
