<svg width="23" height="17" viewBox="0 0 23 17" fill="none" xmlns="http://www.w3.org/2000/svg">
<path fill-rule="evenodd" clip-rule="evenodd" d="M3 7C3 6.44771 3.44772 6 4 6H22C22.5523 6 23 6.44772 23 7V16C23 16.5523 22.5523 17 22 17H4C3.44772 17 3 16.5523 3 16V7ZM17.5 10.6181C17.2346 10.8556 16.8842 11 16.5 11C15.6716 11 15 10.3284 15 9.5C15 8.67157 15.6716 8 16.5 8C16.8842 8 17.2346 8.14443 17.5 8.38195C17.7654 8.14443 18.1158 8 18.5 8C19.3284 8 20 8.67157 20 9.5C20 10.3284 19.3284 11 18.5 11C18.1158 11 17.7654 10.8556 17.5 10.6181Z" fill="white"/>
<path fill-rule="evenodd" clip-rule="evenodd" d="M1 0C0.447716 0 0 0.447708 0 1V10C0 10.5523 0.447716 11 1 11H2V6C2 5.44771 2.44772 5 3 5H20V1C20 0.447708 19.5523 0 19 0H1Z" fill="white"/>
<rect x="2" y="2" width="16" height="1" rx="0.2" fill="#FBB040"/>
</svg>
