<svg width="20" height="20" viewBox="0 0 20 20" fill="none" xmlns="http://www.w3.org/2000/svg">
<circle cx="10" cy="10" r="10" fill="#3795EB"/>
<path d="M15.8702 8.44961H15.3688C15.2438 8.44961 15.0458 8.29765 14.9614 8.07954C14.9317 8.00269 14.8998 7.92569 14.8666 7.85065C14.7721 7.63685 14.8046 7.38952 14.8929 7.3014L15.2478 6.94693C15.6889 6.50577 15.6889 5.78817 15.2479 5.34718L14.6551 4.75437C14.441 4.54026 14.1569 4.42243 13.8549 4.42243C13.5529 4.42243 13.2687 4.54028 13.0547 4.75437L12.7002 5.10891C12.6486 5.16051 12.544 5.19258 12.4272 5.19258C12.3325 5.19258 12.2343 5.17223 12.1505 5.1352C12.0755 5.10205 11.9986 5.07021 11.922 5.04055C11.7038 4.95616 11.5518 4.75808 11.5518 4.63314V4.13123C11.5518 3.50754 11.0443 3 10.4206 3H9.58223C8.95847 3 8.45107 3.50746 8.45107 4.13123V4.63312C8.45107 4.75805 8.29904 4.95604 8.08091 5.04045C8.00458 5.06995 7.9277 5.10178 7.8524 5.13503C7.76868 5.17206 7.6703 5.19242 7.57558 5.19242C7.45878 5.19242 7.3541 5.16036 7.30248 5.10882L6.94777 4.75425C6.73397 4.54045 6.44976 4.4226 6.1476 4.4226C5.84544 4.4226 5.56146 4.54045 5.34793 4.75454L4.75543 5.34708C4.31441 5.7881 4.31441 6.5057 4.75543 6.94669L5.10999 7.30126C5.19826 7.38952 5.23084 7.63707 5.13635 7.85111C5.10327 7.92612 5.07143 8.00297 5.04185 8.07961C4.95753 8.29767 4.75947 8.44961 4.63437 8.44961H4.13262C3.50886 8.44961 3.00146 8.95707 3.00146 9.58084V10.4192C3.00146 11.0429 3.50893 11.5504 4.13262 11.5504H4.6343C4.75933 11.5504 4.95746 11.7023 5.0417 11.9204C5.07127 11.997 5.1031 12.0738 5.13619 12.1488C5.23069 12.3629 5.19811 12.6104 5.10983 12.6987L4.75526 13.0532C4.31424 13.4942 4.31424 14.2121 4.75512 14.6535L5.348 15.2464C5.56172 15.4601 5.84573 15.5778 6.14781 15.5778C6.44988 15.5778 6.73388 15.4602 6.94763 15.2464L7.30241 14.8914C7.35475 14.839 7.45679 14.8078 7.57529 14.8078C7.66994 14.8078 7.76816 14.8281 7.85197 14.8651C7.92634 14.8981 8.00334 14.93 8.0807 14.9599C8.29889 15.0443 8.45086 15.2423 8.45086 15.3673V15.8687C8.45086 16.4924 8.95832 17 9.58201 17H10.4204C11.0442 17 11.5516 16.4925 11.5516 15.8687V15.3673C11.5516 15.2423 11.7035 15.0443 11.9215 14.9601C11.9981 14.9305 12.075 14.8987 12.15 14.8655C12.2337 14.8286 12.332 14.8082 12.4266 14.8082C12.5436 14.8082 12.6483 14.8403 12.6998 14.8919L13.0544 15.2464C13.2687 15.4602 13.5529 15.5778 13.8549 15.5778C13.8876 15.5778 13.9207 15.5763 13.9533 15.5735C14.3663 15.5376 14.7307 15.1715 14.9265 14.9748L14.9513 14.95L15.2476 14.6536C15.6879 14.2123 15.6879 13.4946 15.2478 13.0535L14.8931 12.6987C14.8048 12.6105 14.7722 12.3629 14.8667 12.1488C14.9 12.0735 14.9317 11.9967 14.9612 11.9204C15.0455 11.7023 15.2435 11.5503 15.3684 11.5503H15.8699C16.4937 11.5503 17.0011 11.0429 17.0011 10.4191V9.58081C17.0014 8.95707 16.4939 8.44961 15.8702 8.44961ZM13.0622 10C13.0622 11.6878 11.6892 13.0609 10.0014 13.0609C8.31368 13.0609 6.94062 11.6878 6.94062 10C6.94062 8.31231 8.3137 6.93925 10.0014 6.93925C11.6892 6.93923 13.0622 8.31228 13.0622 10Z" fill="white"/>
</svg>
