<svg width="31" height="26" viewBox="0 0 31 26" fill="none" xmlns="http://www.w3.org/2000/svg">
<path fill-rule="evenodd" clip-rule="evenodd" d="M8.52119 0.666626H4.03089V0.715631L0.330167 5.68237C-0.225273 6.42783 -0.00392152 7.37399 0.82457 7.79567C1.65306 8.21736 2.77496 7.95489 3.3304 7.20944L4.13303 6.13224C4.4537 7.26176 5.49277 8.08911 6.72507 8.08911C7.71704 8.08911 8.52119 7.28496 8.52119 6.29299V5.84814C8.52345 7.08618 9.52777 8.08911 10.7663 8.08911C12.0063 8.08911 13.0115 7.08392 13.0115 5.84396C13.0115 7.08392 14.0167 8.08911 15.2566 8.08911C15.3147 8.08911 15.3723 8.0869 15.4292 8.08257C15.4862 8.0869 15.5437 8.08911 15.6018 8.08911C16.8408 8.08911 17.8454 7.08552 17.847 5.84691C17.8486 7.08552 18.8531 8.08911 20.0921 8.08911C21.3321 8.08911 22.3373 7.08392 22.3373 5.84396C22.3373 7.08392 23.3424 8.08911 24.5824 8.08911C25.6922 8.08911 26.6139 7.28394 26.7952 6.2259L27.528 7.20944C28.0835 7.95489 29.2054 8.21736 30.0339 7.79567C30.8624 7.37399 31.0837 6.42783 30.5283 5.68237L26.8276 0.715655V0.666626H22.3373H17.847H17.5018H13.3567H13.0115H8.52119Z" fill="#FBB040"/>
<rect x="2.54541" y="23.1953" width="26.0909" height="2.25287" rx="1.12644" fill="white"/>
<path fill-rule="evenodd" clip-rule="evenodd" d="M8.72717 9.11499C7.07032 9.11499 5.72717 10.4581 5.72717 12.115V21.8851C5.72717 23.542 7.07032 24.8851 8.72718 24.8851H21.8181C23.4749 24.8851 24.8181 23.542 24.8181 21.8851V12.115C24.8181 10.4581 23.4749 9.11499 21.8181 9.11499H8.72717ZM19.9999 10.4023H10.9999V17.138C10.9999 18.7948 12.3431 20.138 13.9999 20.138H16.9999C18.6568 20.138 19.9999 18.7948 19.9999 17.138V10.4023Z" fill="white"/>
</svg>
